<svg width="21" height="20" fill="none" xmlns="http://www.w3.org/2000/svg"><path d="M10.048 6.665A3.342 3.342 0 006.713 10a3.342 3.342 0 003.335 3.335A3.342 3.342 0 0013.383 10a3.342 3.342 0 00-3.335-3.335zM20.05 10c0-1.38.012-2.75-.065-4.128-.078-1.6-.443-3.022-1.614-4.193C17.198.506 15.78.143 14.178.066 12.798-.012 11.43 0 10.051 0 8.67 0 7.3-.012 5.923.066 4.322.143 2.9.509 1.73 1.679.557 2.853.194 4.271.117 5.872.039 7.253.052 8.622.052 10c0 1.378-.013 2.75.065 4.128.077 1.6.442 3.022 1.613 4.193 1.173 1.173 2.592 1.536 4.193 1.613 1.38.078 2.75.065 4.128.065 1.38 0 2.749.013 4.127-.065 1.601-.077 3.022-.443 4.193-1.613 1.173-1.174 1.536-2.592 1.614-4.193.08-1.379.065-2.747.065-4.128zm-10.002 5.131A5.124 5.124 0 014.918 10a5.124 5.124 0 015.13-5.131c2.84 0 5.131 2.292 5.131 5.131a5.124 5.124 0 01-5.13 5.131zm5.341-9.274a1.197 1.197 0 01-1.198-1.198c0-.663.535-1.198 1.198-1.198a1.197 1.197 0 01.848 2.046 1.198 1.198 0 01-.848.35z" fill="#fff"/></svg>