<svg width="35" height="36" fill="none" xmlns="http://www.w3.org/2000/svg"><path d="M30.938 13.556l-.021-.021a.012.012 0 01-.004-.005L17.383 0 3.853 13.53l-.003.004-.023.022a13.156 13.156 0 0013.194 21.852c.236-.072.488-.072.724 0a13.154 13.154 0 0016.926-14.146 13.157 13.157 0 00-3.733-7.706zM8.665 22.478a.71.71 0 00-.208.501 13.13 13.13 0 001.952 6.757.257.257 0 01-.316.373 7.894 7.894 0 01-2.526-12.851l9.816-9.816 9.816 9.816a7.892 7.892 0 01-.007 11.155 7.87 7.87 0 01-2.52 1.696.258.258 0 01-.315-.373 13.13 13.13 0 001.953-6.757.708.708 0 00-.208-.501l-4.643-4.925a.257.257 0 00-.389.324c1.803 3.263.253 7.95-2.333 10.536l-.013.014a1.905 1.905 0 01-2.682 0l-.012-.014c-2.587-2.586-4.137-7.272-2.333-10.535a.257.257 0 00-.388-.324l-4.644 4.924z" fill="#FF890D"/></svg>