<svg width="30" height="30" fill="none" xmlns="http://www.w3.org/2000/svg"><path fill-rule="evenodd" clip-rule="evenodd" d="M0 15C0 6.716 6.716 0 15 0c8.284 0 15 6.716 15 15 0 8.284-6.716 15-15 15-8.284 0-15-6.716-15-15zm26.739 0c0-6.483-5.255-11.74-11.739-11.74C8.516 3.26 3.261 8.516 3.261 15c0 6.483 5.255 11.739 11.739 11.739 6.484 0 11.739-5.256 11.739-11.739zm-7.399-4.3v2.34c.93 0 1.86.936 1.86 2.028v5.46c0 .936-.93 1.872-2.015 1.872H10.66c-.93 0-1.86-.936-1.86-2.028v-5.46c0-.936.93-1.872 1.86-1.872V10.7c0-2.184 2.17-3.9 4.34-3.9s4.34 1.716 4.34 3.9zm-6.665 2.34h4.65V10.7c0-1.248-1.085-2.028-2.325-2.028-1.24 0-2.325.78-2.325 2.028v2.34z" fill="#fff"/></svg>