<svg width="20" height="20" fill="none" xmlns="http://www.w3.org/2000/svg"><path d="M20 2.376a7.045 7.045 0 01-2.36.78c.856-.625 1.497-1.614 1.802-2.78-.803.588-1.683 1-2.6 1.219A4.21 4.21 0 0015.479.414 3.443 3.443 0 0013.847 0c-2.271 0-4.098 2.266-4.098 5.047 0 .39.038.781.1 1.157-3.4-.219-6.434-2.219-8.45-5.28A5.921 5.921 0 00.84 3.47c0 1.752.724 3.296 1.827 4.205a3.57 3.57 0 01-1.853-.642v.062c0 2.452 1.408 4.485 3.285 4.952-.352.113-.715.17-1.079.172-.267 0-.519-.033-.774-.077.52 2 2.031 3.453 3.832 3.5C4.67 17 2.906 17.799.99 17.799a6.83 6.83 0 01-.99-.062C1.817 19.172 3.973 20 6.295 20c7.537 0 11.662-7.686 11.662-14.358 0-.219 0-.438-.012-.657A10.205 10.205 0 0020 2.375z" fill="#fff"/></svg>