<svg width="30" height="30" fill="none" xmlns="http://www.w3.org/2000/svg"><path fill-rule="evenodd" clip-rule="evenodd" d="M0 15C0 6.716 6.716 0 15 0c8.284 0 15 6.716 15 15 0 8.284-6.716 15-15 15-8.284 0-15-6.716-15-15zm4.038-4.21a11.777 11.777 0 016.752-6.753l1.66 3.943a7.5 7.5 0 00-4.47 4.455L4.038 10.79zm6.74 15.167a11.775 11.775 0 01-6.74-6.747l3.942-1.63a7.451 7.451 0 004.455 4.44l-1.657 3.937zm15.179-6.735a11.775 11.775 0 01-6.734 6.734l-1.628-3.936a7.465 7.465 0 004.425-4.455l3.937 1.657zM19.229 4.044a11.778 11.778 0 016.727 6.733l-3.936 1.628a7.473 7.473 0 00-4.425-4.41l1.634-3.95zM10.5 15c0 2.49 2.01 4.5 4.5 4.5s4.5-2.01 4.5-4.5-2.01-4.5-4.5-4.5-4.5 2.01-4.5 4.5z" fill="#fff"/></svg>