<svg width="20" height="20" fill="none" xmlns="http://www.w3.org/2000/svg"><path fill-rule="evenodd" clip-rule="evenodd" d="M2.373 0C11.77 0 19.42 8.076 19.46 18.018h.002v1.052h-.011c-.025.233-.124.451-.28.617a.964.964 0 01-.581.3V20h-1.767v-.002a.957.957 0 01-.644-.273 1.066 1.066 0 01-.315-.655h-.01v-1.052h.01c-.04-7.842-6.076-14.21-13.492-14.21h-.02l-.018-.001v.014H1.34V3.81a.962.962 0 01-.583-.296 1.066 1.066 0 01-.283-.615H.462v-1.87h.002C.469.773.56.531.722.344A.968.968 0 011.34.012V0h.994v.002A.324.324 0 002.373 0zm0 7.206l-.022.001-.017.001v-.002H1.34v.012a.968.968 0 00-.618.333c-.161.187-.253.43-.258.682H.462v1.87h.012c.026.234.126.45.283.616.157.166.363.27.583.296v.012h.994v-.014a.346.346 0 01.038.002c3.663 0 6.646 3.134 6.686 7.003h-.01v1.052h.011c.027.25.139.484.315.654.177.171.406.268.644.273V20h1.766v-.013a.964.964 0 00.582-.3c.156-.166.255-.384.28-.617h.01v-1.052h-.001c-.04-5.97-4.636-10.812-10.282-10.812zm.78 7.334c-.331 0-.658.069-.964.203-.306.134-.583.33-.817.578-.234.248-.42.542-.546.865a2.802 2.802 0 000 2.041c.127.324.313.617.546.865.234.248.512.444.818.578a2.398 2.398 0 001.927 0c.306-.134.583-.33.817-.578.234-.247.42-.541.546-.865a2.803 2.803 0 000-2.041 2.682 2.682 0 00-.546-.866 2.514 2.514 0 00-.817-.578 2.398 2.398 0 00-.964-.202z" fill="#fff"/></svg>